#!OML:ASF F:\VICON\USERDATA\INSTALL\Justin_Nancy\Justin_Nancy.ASF
:FULLY-SPECIFIED
:DEGREES
159
root -1.11124 17.1964 9.34225 -6.87043 -45.9666 11.7705
lowerback 8.16103 0.349535 -7.12973
upperback -0.0939779 -0.219435 0.109958
thorax -4.6631 0.0553023 4.15564
lowerneck -16.0274 -3.51791 -10.9914
upperneck 23.2969 -3.59032 5.81418
head 10.4232 -1.99788 3.4201
rclavicle -5.45664e-014 -5.56597e-015
rhumerus -39.5316 -17.8138 -73.0022
rradius 26.8923
rwrist 10.3654
rhand -14.116 10.0128
rfingers 7.12502
rthumb 12.0173 -19.6222
lclavicle -5.45664e-014 -5.56597e-015
lhumerus -26.7242 20.5796 78.0874
lradius 20.0269
lwrist -16.1816
lhand -16.4662 25.8874
lfingers 7.12502
lthumb 9.75043 55.6417
rfemur -33.0565 -5.41394 15.886
rtibia 67.0024
rfoot -13.5973 -2.60119
rtoes 2.90793
lfemur -10.1098 -3.68492 -30.42
ltibia 28.9556
lfoot -17.0729 -3.76623
ltoes 4.70414
160
root -1.25574 17.1844 9.51323 -6.5583 -45.7406 11.5726
lowerback 8.21237 0.339907 -7.18951
upperback -0.150876 -0.235466 0.276658
thorax -4.74937 0.0559574 4.36751
lowerneck -16.1124 -3.5222 -10.8811
upperneck 23.2234 -3.56396 5.63235
head 10.4052 -1.99336 3.33744
rclavicle -8.94531e-015 -1.59028e-015
rhumerus -40.1846 -17.2985 -72.6912
rradius 27.2265
rwrist 9.32755
rhand -13.9435 9.49962
rfingers 7.12502
rthumb 12.1836 -20.1256
lclavicle -8.94531e-015 -1.59028e-015
lhumerus -26.0131 18.9295 79.0444
lradius 20.9076
lwrist -14.1234
lhand -16.2441 26.0307
lfingers 7.12502
lthumb 9.96469 55.7748
rfemur -34.2059 -5.61196 16.3645
rtibia 64.8148
rfoot -13.6875 -3.19988
rtoes -0.759574
lfemur -9.42555 -3.55491 -30.4521
ltibia 28.8702
lfoot -17.2533 -4.39542
ltoes 6.81198
161
root -1.40306 17.1788 9.6944 -6.4912 -45.4008 11.5687
lowerback 8.28765 0.306479 -7.26113
upperback -0.125602 -0.291873 0.28634
thorax -4.75778 0.0294536 4.42555
lowerneck -16.3013 -3.60282 -10.6871
upperneck 23.1885 -3.69698 5.60005
head 10.436 -2.03636 3.27275
rclavicle 1.36167e-014 2.3059e-014
rhumerus -40.8732 -16.4987 -72.7357
rradius 27.7381
rwrist 8.24958
rhand -13.9567 8.59157
rfingers 7.12502
rthumb 12.1708 -21.0344
lclavicle 1.36167e-014 2.3059e-014
lhumerus -25.2344 17.301 79.7678
lradius 21.7603
lwrist -12.3503
lhand -16.0668 26.4336
lfingers 7.12502
lthumb 10.1357 56.1695
rfemur -34.927 -5.90543 16.5167
rtibia 62.374
rfoot -13.8779 -3.56028
rtoes -0.840685
lfemur -8.50896 -3.54671 -30.6681
ltibia 28.5561
lfoot -17.4302 -5.04343
ltoes 9.19785
162
root -1.5496 17.184 9.86901 -6.13358 -45.0129 11.2311
lowerback 8.37051 0.257969 -7.09525
upperback -0.089507 -0.342899 0.338807
thorax -4.75984 6.31999e-005 4.39394
lowerneck -16.4866 -3.74872 -10.7405
upperneck 23.046 -3.90711 5.79219
head 10.4441 -2.10778 3.31814
rclavicle -1.09332e-015 2.8625e-014
rhumerus -41.4973 -16.2809 -72.545
rradius 28.0589
rwrist 7.88226
rhand -14.1919 8.10091
rfingers 7.12502
rthumb 11.9441 -21.5383
lclavicle -1.09332e-015 2.8625e-014
lhumerus -24.4446 15.4848 80.4939
lradius 22.6859
lwrist -10.5888
lhand -16.0732 26.5905
lfingers 7.12502
lthumb 10.1295 56.3267
rfemur -35.4753 -5.87251 16.7298
rtibia 59.6953
rfoot -14.1119 -3.64502
rtoes 4.61992
lfemur -7.57157 -3.58798 -30.5657
ltibia 28.0905
lfoot -17.7518 -5.35337
ltoes 10.4074
163
root -1.69612 17.1804 10.0364 -5.84608 -44.6128 11.0918
lowerback 8.54331 0.148352 -7.22806
upperback -0.164024 -0.512968 0.447386
thorax -4.91244 -0.0713395 4.60703
lowerneck -16.6013 -3.75032 -10.6014
upperneck 22.9165 -3.89023 5.65083
head 10.4114 -2.099 3.24308
rclavicle -8.13029e-014 3.18055e-015
rhumerus -42.0839 -16.5291 -71.9826
rradius 28.1252
rwrist 8.4139
rhand -14.1296 8.45425
rfingers 7.12502
rthumb 12.0042 -21.1815
lclavicle -8.13029e-014 3.18055e-015
lhumerus -23.9171 14.3321 81.0476
lradius 23.6726
lwrist -9.35743
lhand -16.3951 26.2441
lfingers 7.12502
lthumb 9.81899 55.9952
rfemur -36.0984 -5.95095 16.9013
rtibia 56.7856
rfoot -13.942 -4.27145
rtoes 6.19252
lfemur -6.50683 -3.18545 -30.6199
ltibia 27.4699
lfoot -18.2403 -5.20753
ltoes 8.46994
164
root -1.8444 17.1631 10.2122 -5.55913 -44.2151 11.1263
lowerback 8.42544 -0.0555796 -7.38304
upperback -0.222286 -0.787613 0.531507
thorax -4.8681 -0.201933 4.81612
lowerneck -16.6758 -3.5614 -10.3943
upperneck 22.8192 -3.61514 5.44882
head 10.3561 -1.97469 3.1727
rclavicle -4.2043e-014 1.11319e-014
rhumerus -42.4724 -16.4299 -71.6379
rradius 28.1763
rwrist 8.74126
rhand -14.0113 8.73399
rfingers 7.12502
rthumb 12.1182 -20.8951
lclavicle -4.2043e-014 1.11319e-014
lhumerus -23.4979 13.4253 81.4868
lradius 24.7224
lwrist -8.38533
lhand -16.645 25.7991
lfingers 7.12502
lthumb 9.57785 55.5614
rfemur -36.8114 -6.36412 17.1261
rtibia 53.627
rfoot -13.1983 -5.73581
rtoes 1.86446
lfemur -5.44662 -2.94222 -30.8813
ltibia 26.7177
lfoot -18.7227 -4.67204
ltoes 5.48256
165
root -1.99584 17.1437 10.3882 -5.38393 -43.8785 11.2497
lowerback 8.24807 -0.120443 -7.47792
upperback -0.235989 -0.86928 0.522336
thorax -4.77023 -0.243547 4.8669
lowerneck -16.6884 -3.52076 -10.3672
upperneck 22.6653 -3.57829 5.53517
head 10.2998 -1.94135 3.20238
rclavicle -4.39314e-014 -1.03368e-014
rhumerus -42.8812 -16.4152 -71.3621
rradius 28.2448
rwrist 8.66505
rhand -13.8966 8.77802
rfingers 7.12502
rthumb 12.2288 -20.8445
lclavicle -4.39314e-014 -1.03368e-014
lhumerus -22.976 11.8895 81.993
lradius 25.904
lwrist -7.15994
lhand -16.4635 25.8613
lfingers 7.12502
lthumb 9.75296 55.6154
rfemur -37.3015 -6.34866 17.129
rtibia 50.273
rfoot -12.3251 -7.07979
rtoes 0.134173
lfemur -4.44432 -2.81017 -31.1378
ltibia 25.9118
lfoot -18.807 -4.79138
ltoes 6.03057
166
root -2.14834 17.1323 10.57 -5.36925 -43.5536 11.3956
lowerback 8.16387 -0.193685 -7.59281
upperback -0.179633 -0.968675 0.523968
thorax -4.64787 -0.296643 4.94305
lowerneck -17.0378 -3.56421 -10.5206
upperneck 22.8143 -3.61018 5.73101
head 10.4301 -1.94341 3.29523
rclavicle 1.98785e-015 6.36111e-015
rhumerus -43.224 -16.3434 -71.0646
rradius 28.2232
rwrist 8.66743
rhand -13.9141 9.44015
rfingers 7.12502
rthumb 12.2119 -20.1834
lclavicle 1.98785e-015 6.36111e-015
lhumerus -22.4295 10.4789 82.4226
lradius 27.0201
lwrist -6.07386
lhand -16.7324 25.8859
lfingers 7.12502
lthumb 9.49358 55.652
rfemur -37.3869 -6.15282 16.9046
rtibia 46.6955
rfoot -11.4292 -7.83674
rtoes 1.09465
lfemur -3.26277 -2.03904 -31.3475
ltibia 25.0838
lfoot -18.9747 -5.33969
ltoes 5.87798
167
root -2.29984 17.132 10.7479 -4.8958 -43.1883 11.0315
lowerback 8.00462 -0.444226 -7.40062
upperback -0.204506 -1.26108 0.722232
thorax -4.54176 -0.446783 5.07382
lowerneck -16.9466 -3.48641 -10.9444
upperneck 22.6444 -3.43957 5.95023
head 10.3481 -1.87417 3.46783
rclavicle 3.8763e-014 1.59028e-015
rhumerus -43.412 -16.1694 -70.6566
rradius 27.956
rwrist 9.13077
rhand -14.1101 9.91734
rfingers 7.12502
rthumb 12.023 -19.7173
lclavicle 3.8763e-014 1.59028e-015
lhumerus -22.099 9.62076 82.7444
lradius 28.0974
lwrist -5.22396
lhand -17.1669 25.5731
lfingers 7.12502
lthumb 9.07428 55.3579
rfemur -37.4158 -5.85741 17.002
rtibia 42.9569
rfoot -10.6266 -8.76839
rtoes 3.25663
lfemur -2.05371 -1.69304 -31.1867
ltibia 24.1165
lfoot -19.2647 -5.30736
ltoes 4.18142
168
root -2.45265 17.127 10.9184 -4.44047 -42.8474 10.6599
lowerback 8.09997 -0.62575 -7.27232
upperback -0.381745 -1.49344 0.933103
thorax -4.74675 -0.548231 5.25575
lowerneck -16.6506 -3.44708 -11.1654
upperneck 22.4039 -3.3521 5.96108
head 10.2019 -1.85133 3.51776
rclavicle 9.34288e-015 2.62396e-014
rhumerus -43.7216 -16.0841 -70.16
rradius 27.658
rwrist 9.80782
rhand -14.281 9.41247
rfingers 7.12502
rthumb 11.8581 -20.2318
lclavicle 9.34288e-015 2.62396e-014
lhumerus -22.0613 9.32721 82.9623
lradius 29.3694
lwrist -4.83964
lhand -16.9348 25.7993
lfingers 7.12502
lthumb 9.29828 55.5743
rfemur -37.3839 -5.44268 17.0967
rtibia 39.1458
rfoot -9.81921 -10.0762
rtoes 4.48687
lfemur -0.784549 -1.63406 -30.9939
ltibia 23.0066
lfoot -19.3527 -5.19757
ltoes 3.66651
169
root -2.61335 17.1083 11.0829 -4.56118 -42.3805 11.1352
lowerback 8.18267 -0.660628 -7.77505
upperback -0.441728 -1.60706 0.757597
thorax -4.83394 -0.58857 5.37123
lowerneck -16.7092 -3.45988 -10.5403
upperneck 22.2154 -3.47572 5.75364
head 10.1391 -1.873 3.31752
rclavicle -4.73108e-014 -1.59028e-015
rhumerus -44.145 -16.3522 -70.0373
rradius 27.6887
rwrist 9.82287
rhand -14.3172 8.99483
rfingers 7.12502
rthumb 11.8232 -20.6514
lclavicle -4.73108e-014 -1.59028e-015
lhumerus -21.7058 8.41474 82.9949
lradius 30.6837
lwrist -4.46655
lhand -16.6221 25.8589
lfingers 7.12502
lthumb 9.59992 55.6201
rfemur -37.2906 -4.89841 16.3961
rtibia 35.3076
rfoot -9.22517 -11.4146
rtoes 5.09824
lfemur 0.477684 -1.29019 -31.3737
ltibia 21.8356
lfoot -19.1812 -5.6681
ltoes 4.62765
170
root -2.77543 17.0869 11.2529 -4.91064 -41.7907 11.7891
lowerback 8.21967 -0.736305 -8.34765
upperback -0.327835 -1.77605 0.511304
thorax -4.70214 -0.670976 5.45231
lowerneck -17.1136 -3.43238 -9.86856
upperneck 22.1474 -3.51205 5.50996
head 10.1748 -1.85183 3.10953
rclavicle -9.2733e-014 1.74931e-014
rhumerus -44.3453 -16.6945 -69.9753
rradius 27.6868
rwrist 9.74909
rhand -14.4231 8.46057
rfingers 7.12502
rthumb 11.7211 -21.1915
lclavicle -9.2733e-014 1.74931e-014
lhumerus -21.0218 7.26372 83.0252
lradius 31.7476
lwrist -3.98037
lhand -16.6129 25.4948
lfingers 7.12502
lthumb 9.60883 55.2557
rfemur -36.82 -4.34865 15.3691
rtibia 31.4067
rfoot -9.3093 -13.1485
rtoes 6.24046
lfemur 1.79439 -0.828101 -31.8771
ltibia 20.8753
lfoot -19.177 -6.30141
ltoes 5.57813
